<svg xmlns="http://www.w3.org/2000/svg" data-name="Layer 1" viewBox="0 0 100 100" x="0px" y="0px"><title>01</title><g data-name="Group"><g data-name="Group"><path d="M19.8,76.5l57.9-.2h2.7A15.9,15.9,0,0,0,95.7,60.6,15.7,15.7,0,0,0,80,44.9,22.3,22.3,0,0,0,57.5,24.2a22.7,22.7,0,0,0-18.1,9,15.2,15.2,0,0,0-7.2-1.8A15.5,15.5,0,0,0,16.9,45.1,15.7,15.7,0,0,0,4.3,60.5C4.3,69.2,11.4,76.5,19.8,76.5Zm-.4-26.6h2.5V46.9A10.4,10.4,0,0,1,32.2,36.4a10.3,10.3,0,0,1,6.4,2.2l2.3,1.7,1.4-2.5a17.6,17.6,0,0,1,15.2-8.7A17.3,17.3,0,0,1,75,46.2c0,.4,0,.8-.1,1.3l-.3,3.4,3.3-.7,2.3-.3a10.7,10.7,0,0,1,0,21.4h-.3l-60.1.2c-5.7,0-10.4-5-10.4-11A10.6,10.6,0,0,1,19.4,49.9Z"></path></g></g></svg>