<svg xmlns="http://www.w3.org/2000/svg" xmlns:xlink="http://www.w3.org/1999/xlink" version="1.1" x="0px" y="0px" viewBox="0 0 100 100" enable-background="new 0 0 100 100" xml:space="preserve"><path d="M94.298,48.395l-1.962-11.13c-0.08-0.447-0.476-0.757-0.924-0.734l-11.159,0.677c-1.01-2.347-2.289-4.55-3.792-6.575  l6.397-9.094c0.264-0.379,0.195-0.895-0.155-1.188l-8.663-7.269c-0.344-0.287-0.849-0.275-1.176,0.034l-8.118,7.688  c-2.243-1.13-4.636-2.008-7.132-2.599L56.673,7.132c-0.04-0.459-0.425-0.815-0.884-0.815H44.481c-0.447,0-0.826,0.339-0.878,0.786  L42.33,18.205c-2.501,0.591-4.888,1.469-7.132,2.599l-7.849-7.877c-0.321-0.327-0.843-0.35-1.193-0.057l-8.663,7.269  c-0.344,0.287-0.419,0.792-0.166,1.165l6.162,9.323c-1.503,2.025-2.783,4.228-3.798,6.575L8.617,36.209  c-0.459-0.04-0.872,0.275-0.952,0.729L5.702,48.073c-0.08,0.442,0.184,0.872,0.62,0.998l10.717,3.19  c0.149,2.582,0.602,5.089,1.314,7.476l-9.122,6.351c-0.379,0.264-0.493,0.775-0.264,1.17l5.657,9.794  c0.224,0.39,0.706,0.545,1.119,0.367l10.264-4.452c1.727,1.842,3.678,3.483,5.8,4.882L28.91,88.585  c-0.12,0.448,0.115,0.907,0.551,1.067l10.62,3.861c0.425,0.155,0.895-0.029,1.096-0.436l5.003-10  c1.245,0.143,2.507,0.218,3.792,0.218c1.285,0,2.547-0.075,3.792-0.218l4.676,10.092c0.195,0.419,0.677,0.62,1.107,0.459  l10.626-3.867c0.425-0.155,0.66-0.602,0.557-1.038L68.13,77.85c2.123-1.4,4.068-3.041,5.806-4.877l10.075,4.722  c0.419,0.195,0.912,0.04,1.142-0.361l5.657-9.788c0.224-0.39,0.12-0.889-0.241-1.153l-8.979-6.655  c0.711-2.387,1.165-4.894,1.314-7.476l10.752-2.857C94.097,49.29,94.379,48.848,94.298,48.395z M49.972,70.868  c-11.36,0-20.563-9.208-20.563-20.563c0-11.354,9.203-20.563,20.563-20.563c11.354,0,20.563,9.208,20.563,20.563  C70.534,61.659,61.326,70.868,49.972,70.868z"></path></svg>