<?xml version="1.0" encoding="UTF-8" standalone="no"?>
<!-- Created with Inkscape (http://www.inkscape.org/) -->

<svg
   xmlns:dc="http://purl.org/dc/elements/1.1/"
   xmlns:cc="http://creativecommons.org/ns#"
   xmlns:rdf="http://www.w3.org/1999/02/22-rdf-syntax-ns#"
   xmlns:svg="http://www.w3.org/2000/svg"
   xmlns="http://www.w3.org/2000/svg"
   xmlns:sodipodi="http://sodipodi.sourceforge.net/DTD/sodipodi-0.dtd"
   xmlns:inkscape="http://www.inkscape.org/namespaces/inkscape"
   width="128"
   height="128"
   viewBox="0 0 128 128"
   version="1.1"
   id="svg8"
   inkscape:version="0.92.1 r15371"
   sodipodi:docname="UnityCloudLogo.svg">
  <defs
     id="defs2">
    <mask
       maskUnits="userSpaceOnUse"
       id="mask6023">
      <g
         id="g6029">
        <rect
           y="253.99048"
           x="-24.821428"
           height="152.5"
           width="167.67857"
           id="rect6025"
           style="opacity:1;fill:#ffffff;fill-opacity:1;stroke:none;stroke-width:4.55938148;stroke-linecap:round;stroke-linejoin:round;stroke-miterlimit:4;stroke-dasharray:none;stroke-opacity:1" />
        <path
           transform="translate(0,263.13332)"
           inkscape:connector-curvature="0"
           id="path6027"
           d="m 26.029258,119.0067 c -4.746313,-0.42032 -9.012611,-3.52109 -11.131852,-8.09072 -1.057649,-2.28055 -1.351426,-3.637 -1.353538,-6.24965 -0.0021,-2.62812 0.379955,-4.24859 1.517112,-6.434346 1.41401,-2.717907 3.517213,-4.741684 6.325421,-6.08655 2.058953,-0.986041 3.23832,-1.253055 6.001813,-1.358832 l 2.430385,-0.09303 0.101333,-3.147548 c 0.115454,-3.586184 0.390262,-4.8549 1.544894,-7.132371 1.375009,-2.712161 3.383543,-4.668919 6.171575,-6.012485 2.115946,-1.019685 3.516355,-1.34198 5.831059,-1.34198 3.453486,0 5.727912,0.854688 9.251973,3.47672 1.126023,0.837804 2.090309,1.522126 2.142857,1.520714 0.05255,-0.0014 0.69367,-1.048443 1.424718,-2.326737 2.205373,-3.856269 4.376397,-6.268024 7.560693,-8.399056 4.002411,-2.678539 8.133063,-3.914498 13.082491,-3.914498 3.814773,0 7.124848,0.770244 10.322316,2.40197 2.159925,1.102249 3.65977,2.195503 5.590036,4.074641 1.92773,1.876667 3.29673,3.719005 4.409504,5.934103 2.119994,4.220086 2.738269,7.977043 2.20403,13.392858 -0.145323,1.473214 -0.232738,2.711821 -0.19425,2.752462 0.03849,0.04064 1.134942,-0.141429 2.436562,-0.404596 3.37835,-0.68305 5.06125,-0.879124 6.35648,-0.740591 5.83662,0.624255 10.73728,4.864494 12.17648,10.535582 0.49762,1.96081 0.49583,4.838 -0.004,6.78571 -1.1272,4.39052 -4.1245,7.86649 -8.25025,9.56781 -2.68672,1.10792 -0.56618,1.04535 -38.834159,1.14579 -19.233843,0.0505 -37.542044,0.11791 -40.684901,0.14983 -3.142858,0.0319 -6.035715,0.0296 -6.428572,-0.005 z"
           style="opacity:1;fill:#000000;fill-opacity:1;stroke:none;stroke-width:0.4049494;stroke-linecap:round;stroke-linejoin:round;stroke-miterlimit:4;stroke-dasharray:none;stroke-opacity:1" />
      </g>
    </mask>
  </defs>
  <sodipodi:namedview
     id="base"
     pagecolor="#ffffff"
     bordercolor="#666666"
     borderopacity="1.0"
     inkscape:pageopacity="0.0"
     inkscape:pageshadow="2"
     inkscape:zoom="5.6"
     inkscape:cx="115.93997"
     inkscape:cy="42.262239"
     inkscape:document-units="px"
     inkscape:current-layer="layer1"
     showgrid="false"
     units="px"
     inkscape:pagecheckerboard="true"
     inkscape:window-width="2560"
     inkscape:window-height="1377"
     inkscape:window-x="2552"
     inkscape:window-y="-8"
     inkscape:window-maximized="1" />
  <metadata
     id="metadata5">
    <rdf:RDF>
      <cc:Work
         rdf:about="">
        <dc:format>image/svg+xml</dc:format>
        <dc:type
           rdf:resource="http://purl.org/dc/dcmitype/StillImage" />
        <dc:title></dc:title>
      </cc:Work>
    </rdf:RDF>
  </metadata>
  <g
     inkscape:groupmode="layer"
     id="layer2"
     inkscape:label="Layer 2"
     style="display:inline">
    <g
       id="g4501"
       data-name="Group"
       transform="matrix(1.3175271,0,0,1.3175271,0.99262723,24.93275)"
       style="fill:#222c37;fill-opacity:1;stroke:none;stroke-opacity:1">
      <g
         id="g4499"
         data-name="Group"
         style="fill:#222c37;fill-opacity:1;stroke:none;stroke-opacity:1">
        <path
           id="path4497"
           d="m 19.8,76.5 57.9,-0.2 h 2.7 A 15.9,15.9 0 0 0 95.7,60.6 15.7,15.7 0 0 0 80,44.9 22.3,22.3 0 0 0 57.5,24.2 22.7,22.7 0 0 0 39.4,33.2 15.2,15.2 0 0 0 32.2,31.4 15.5,15.5 0 0 0 16.9,45.1 15.7,15.7 0 0 0 4.3,60.5 c 0,8.7 7.1,16 15.5,16 z M 19.4,49.9 h 2.5 v -3 a 10.4,10.4 0 0 1 10.3,-10.5 10.3,10.3 0 0 1 6.4,2.2 l 2.3,1.7 1.4,-2.5 A 17.6,17.6 0 0 1 57.5,29.1 17.3,17.3 0 0 1 75,46.2 c 0,0.4 0,0.8 -0.1,1.3 l -0.3,3.4 3.3,-0.7 2.3,-0.3 a 10.7,10.7 0 0 1 0,21.4 h -0.3 l -60.1,0.2 c -5.7,0 -10.4,-5 -10.4,-11 a 10.6,10.6 0 0 1 10,-10.6 z"
           inkscape:connector-curvature="0"
           style="fill:#222c37;fill-opacity:1;stroke:none;stroke-opacity:1" />
      </g>
    </g>
  </g>
  <g
     inkscape:label="Layer 1"
     inkscape:groupmode="layer"
     id="layer1"
     transform="translate(0,-263.13332)"
     style="display:inline">
    <path
       id="path4485"
       d="m 56.386963,307.85443 15.342129,-26.49187 7.413365,26.49194 -7.413667,26.48553 z m -7.477473,4.30224 15.34396,26.48744 -26.722851,-6.84597 -19.30522,-19.64147 z M 64.250171,277.05712 48.909563,303.5489 H 18.225462 l 19.305293,-19.64285 z m 21.901615,21.78169 -9.359648,-34.82063 -34.934749,9.33191 -5.171363,9.092 -10.493452,-0.0751 -25.57021743,25.48994 25.57013543,25.48384 h 9.16e-4 l 10.489183,-0.0776 5.178764,9.09207 34.930628,9.33007 9.359189,-34.81392 -5.31552,-9.0166 5.31552,-9.01546 z"
       inkscape:connector-curvature="0"
       style="fill:#222c37;stroke-width:0.07623229"
       mask="url(#mask6023)" />
    <path
       id="path6051"
       d="m 96.983769,355.46833 -0.969723,-5.50102 c -0.03954,-0.22093 -0.235264,-0.37415 -0.456689,-0.36278 l -5.515361,0.33461 c -0.499195,-1.16001 -1.131344,-2.24885 -1.874205,-3.24971 l 3.161732,-4.49473 c 0.130482,-0.18732 0.09638,-0.44236 -0.07661,-0.58718 l -4.281707,-3.59271 c -0.170023,-0.14186 -0.419621,-0.13592 -0.581241,0.0168 l -4.012341,3.7998 c -1.108607,-0.5585 -2.291353,-0.99245 -3.525007,-1.28456 L 78.387526,335.074 c -0.01977,-0.22687 -0.210058,-0.40282 -0.436919,-0.40282 h -5.589005 c -0.220931,0 -0.408252,0.16755 -0.433953,0.38848 l -0.629184,5.48719 c -1.236125,0.29211 -2.415905,0.72606 -3.525007,1.28456 l -3.879387,-3.89322 c -0.158655,-0.16162 -0.416654,-0.17299 -0.589643,-0.0281 l -4.281708,3.59272 c -0.170022,0.14185 -0.207092,0.39145 -0.08204,0.57581 l 3.045583,4.60791 c -0.742861,1.00086 -1.375504,2.0897 -1.87717,3.24971 l -5.47335,-0.49079 c -0.226863,-0.0198 -0.430988,0.13592 -0.470529,0.36031 l -0.970217,5.5035 c -0.03954,0.21845 0.09094,0.43098 0.306437,0.49326 l 5.296902,1.57666 c 0.07364,1.27616 0.297539,2.51526 0.649447,3.69504 l -4.50857,3.13899 c -0.187321,0.13048 -0.243666,0.38305 -0.130482,0.57828 l 2.795985,4.8407 c 0.110712,0.19276 0.348943,0.26937 0.553068,0.18139 l 5.073006,-2.20041 c 0.853574,0.91042 1.81786,1.72148 2.866664,2.41294 l -1.431849,5.3063 c -0.05931,0.22142 0.05683,0.44829 0.272333,0.52736 l 5.248959,1.90831 c 0.210058,0.0766 0.442356,-0.0143 0.541701,-0.2155 l 2.472744,-4.94252 c 0.615344,0.0707 1.23909,0.10775 1.874205,0.10775 0.635114,0 1.258861,-0.0371 1.874205,-0.10775 l 2.311123,4.988 c 0.09638,0.20709 0.334609,0.30644 0.547138,0.22686 l 5.251925,-1.91127 c 0.210056,-0.0766 0.326206,-0.29754 0.275298,-0.51304 l -1.285056,-5.374 c 1.049298,-0.69196 2.010618,-1.50302 2.869629,-2.41047 l 4.979592,2.33385 c 0.207092,0.0964 0.450758,0.0198 0.564436,-0.17842 l 2.795986,-4.83774 c 0.110712,-0.19276 0.05931,-0.43939 -0.119115,-0.56987 l -4.437892,-3.28925 c 0.351414,-1.17978 0.575805,-2.41888 0.649448,-3.69503 l 5.314201,-1.41208 c 0.217965,-0.0568 0.357344,-0.2753 0.317309,-0.4992 z m -21.908227,11.10734 c -5.614707,0 -10.163311,-4.55108 -10.163311,-10.16331 0,-5.61174 4.548604,-10.16331 10.163311,-10.16331 5.61174,0 10.163309,4.55107 10.163309,10.16331 -4.94e-4,5.61174 -4.551569,10.16331 -10.163309,10.16331 z"
       inkscape:connector-curvature="0"
       style="fill:#222c37;fill-opacity:1;stroke-width:0.49425232" />
  </g>
</svg>
