<?xml version="1.0" encoding="utf-8"?>
<!-- Generator: Adobe Illustrator 16.0.0, SVG Export Plug-In . SVG Version: 6.00 Build 0)  -->
<!DOCTYPE svg PUBLIC "-//W3C//DTD SVG 1.1//EN" "http://www.w3.org/Graphics/SVG/1.1/DTD/svg11.dtd">
<svg version="1.1" id="Layer_1" xmlns="http://www.w3.org/2000/svg" xmlns:xlink="http://www.w3.org/1999/xlink" x="0px" y="0px"
	 width="1200px" height="1200px" viewBox="0 0 1200 1200" enable-background="new 0 0 1200 1200" xml:space="preserve">
<path fill="#222C37" d="M770.53,600.035L971.785,252.52l97.247,347.516l-97.251,347.432L770.53,600.035L770.53,600.035z
	 M672.442,656.471l201.279,347.457l-350.545-89.804L269.934,656.471H672.442z M873.678,196.042L672.443,543.556H269.935
	l253.243-257.671L873.678,196.042z M1160.979,481.77L1038.201,25L579.934,147.414l-67.837,119.267l-137.651-0.985L39.021,600.068
	L374.445,934.36h0.014l137.595-1.018l67.934,119.268L1038.201,1175l122.772-456.682l-69.728-118.278l69.728-118.263L1160.979,481.77
	z"/>
</svg>
