<?xml version="1.0" encoding="UTF-8" standalone="no"?>
<!-- Created with Inkscape (http://www.inkscape.org/) -->

<svg
   xmlns:dc="http://purl.org/dc/elements/1.1/"
   xmlns:cc="http://creativecommons.org/ns#"
   xmlns:rdf="http://www.w3.org/1999/02/22-rdf-syntax-ns#"
   xmlns:svg="http://www.w3.org/2000/svg"
   xmlns="http://www.w3.org/2000/svg"
   xmlns:sodipodi="http://sodipodi.sourceforge.net/DTD/sodipodi-0.dtd"
   xmlns:inkscape="http://www.inkscape.org/namespaces/inkscape"
   width="128"
   height="128"
   viewBox="0 0 128 128"
   version="1.1"
   id="svg8"
   inkscape:version="0.92.1 r15371"
   sodipodi:docname="UnityCloudLogo2.svg"
   inkscape:export-filename="E:\Workspace\UnityCloudLogo.png"
   inkscape:export-xdpi="96"
   inkscape:export-ydpi="96">
  <defs
     id="defs2">
    <mask
       maskUnits="userSpaceOnUse"
       id="mask4567">
      <g
         transform="matrix(1.3175271,0,0,1.3175271,0.28390803,285.8763)"
         style="display:inline;fill:#ffffff;fill-opacity:1;stroke:#000000;stroke-width:0.71429449;stroke-miterlimit:4;stroke-dasharray:none;stroke-opacity:1"
         id="g4573">
        <rect
           y="-18.373259"
           x="-1.299768"
           height="101.10933"
           width="103.27789"
           id="rect4569"
           style="opacity:1;fill:#ffffff;fill-opacity:1;stroke:none;stroke-width:1.56054699;stroke-linecap:round;stroke-linejoin:round;stroke-miterlimit:4;stroke-dasharray:none;stroke-opacity:1" />
        <path
           transform="matrix(0.75899767,0,0,0.75899767,-0.21548553,-17.261869)"
           inkscape:connector-curvature="0"
           id="path4571"
           d="m 24.600684,116.25339 c -5.003817,-0.73017 -9.486076,-4.87449 -10.8903,-10.0692 -0.41163,-1.52276 -0.548151,-4.59368 -0.270943,-6.0946 0.901735,-4.8824 4.27988,-8.750087 9.12042,-10.442105 0.940432,-0.328728 1.680635,-0.419793 4.094395,-0.503712 l 2.946428,-0.102441 0.10058,-3.392858 c 0.105707,-3.565826 0.303907,-4.712414 1.14229,-6.608147 0.973846,-2.202041 3.204755,-4.695359 5.330125,-5.957078 1.672387,-0.992808 3.85927,-1.654291 5.827732,-1.762759 3.500977,-0.192915 6.324118,0.833952 10.099273,3.67343 1.612186,1.212603 2.191193,1.559558 2.338036,1.401008 0.107348,-0.115907 0.737795,-1.175025 1.400991,-2.353596 1.531782,-2.722138 2.759679,-4.334099 4.720429,-6.196888 3.458068,-3.285302 7.521173,-5.244161 12.357196,-5.957512 2.391489,-0.352763 5.521304,-0.276993 7.754777,0.187736 9.73295,2.025181 16.903425,10.058396 17.757793,19.894383 0.113623,1.308097 0.07246,2.593831 -0.161348,5.039229 -0.172643,1.805678 -0.281667,3.319925 -0.242277,3.364991 0.03939,0.04507 1.414207,-0.196004 3.055149,-0.535714 2.53734,-0.525283 3.33072,-0.616438 5.30497,-0.609517 2.02977,0.0071 2.50091,0.06824 3.75,0.486502 2.12566,0.71179 3.55365,1.62499 5.37519,3.437441 1.37288,1.366029 1.75404,1.879411 2.45517,3.306788 0.45649,0.929336 0.96718,2.212025 1.13488,2.850418 0.42039,1.600361 0.41197,5.037941 -0.0161,6.596811 -1.17176,4.26655 -4.12179,7.60936 -8.15183,9.23716 -2.4057,0.97171 -1.36911,0.93669 -30.70798,1.03751 -14.977679,0.0515 -33.379465,0.12407 -40.892857,0.16133 -7.513393,0.0373 -14.142858,-0.003 -14.732143,-0.0886 z"
           style="opacity:1;fill:#000000;fill-opacity:1;stroke:#000000;stroke-width:2.05606294;stroke-linecap:round;stroke-linejoin:round;stroke-miterlimit:4;stroke-dasharray:none;stroke-opacity:1" />
      </g>
    </mask>
  </defs>
  <sodipodi:namedview
     id="base"
     pagecolor="#ffffff"
     bordercolor="#666666"
     borderopacity="1.0"
     inkscape:pageopacity="0.0"
     inkscape:pageshadow="2"
     inkscape:zoom="5.6"
     inkscape:cx="86.922113"
     inkscape:cy="45.821867"
     inkscape:document-units="px"
     inkscape:current-layer="layer1"
     showgrid="false"
     units="px"
     inkscape:pagecheckerboard="true"
     inkscape:window-width="2560"
     inkscape:window-height="1377"
     inkscape:window-x="-8"
     inkscape:window-y="-8"
     inkscape:window-maximized="1" />
  <metadata
     id="metadata5">
    <rdf:RDF>
      <cc:Work
         rdf:about="">
        <dc:format>image/svg+xml</dc:format>
        <dc:type
           rdf:resource="http://purl.org/dc/dcmitype/StillImage" />
        <dc:title />
      </cc:Work>
    </rdf:RDF>
  </metadata>
  <g
     inkscape:label="Layer 1"
     inkscape:groupmode="layer"
     id="layer1"
     transform="translate(0,-263.13332)"
     style="display:inline">
    <g
       id="g4505">
      <path
         mask="url(#mask4567)"
         style="display:inline;fill:#ffffff;fill-opacity:1;stroke:#000000;stroke-width:1.04815829;stroke-opacity:1"
         inkscape:connector-curvature="0"
         d="m 122.841,338.30295 -2.05649,-11.66599 c -0.0838,-0.46852 -0.49892,-0.79345 -0.9685,-0.76934 l -11.69639,0.7096 c -1.05864,-2.46002 -2.39924,-4.76912 -3.97462,-6.89164 l 6.70507,-9.53195 c 0.27671,-0.39725 0.20439,-0.93811 -0.16247,-1.24523 l -9.08019,-7.61904 c -0.36057,-0.30084 -0.88989,-0.28824 -1.23264,0.0356 l -8.508949,8.05821 c -2.35101,-1.1844 -4.85926,-2.10468 -7.47546,-2.72416 l -0.98632,-11.60624 c -0.0419,-0.48112 -0.44546,-0.85426 -0.92657,-0.85426 h -11.85257 c -0.468527,0 -0.865778,0.35533 -0.920282,0.82385 l -1.334307,11.63665 c -2.621444,0.61948 -5.123397,1.53976 -7.475464,2.72416 l -8.226995,-8.25633 c -0.336459,-0.34274 -0.883596,-0.36686 -1.250453,-0.0596 l -9.080195,7.61906 c -0.360565,0.30082 -0.439179,0.83015 -0.173982,1.22112 l 6.458752,9.77197 c -1.575382,2.12252 -2.917024,4.43162 -3.980905,6.89164 l -11.607304,-1.04081 c -0.481107,-0.042 -0.913994,0.28824 -0.997848,0.76411 l -2.057534,11.67124 c -0.08385,0.46327 0.192856,0.91398 0.649859,1.04605 l 11.233112,3.34362 c 0.156168,2.70634 0.630989,5.3341 1.377279,7.83605 l -9.561301,6.65684 c -0.39725,0.27671 -0.516741,0.81233 -0.276712,1.22635 l 5.92943,10.26565 c 0.234787,0.40879 0.740002,0.57125 1.172889,0.38467 l 10.758296,-4.66639 c 1.81017,1.93072 3.855127,3.65073 6.07932,5.1171 l -3.036515,11.25305 c -0.125778,0.46956 0.120519,0.95068 0.577535,1.11837 l 11.13144,4.04694 c 0.445468,0.16244 0.938102,-0.0303 1.148782,-0.45701 l 5.243935,-10.48158 c 1.304957,0.14994 2.627732,0.22851 3.974617,0.22851 1.346881,0 2.669661,-0.0787 3.974621,-0.22851 l 4.90118,10.57803 c 0.20439,0.43917 0.7096,0.64986 1.16031,0.4811 l 11.13773,-4.05322 c 0.44547,-0.16245 0.69179,-0.63099 0.58383,-1.088 l -2.72521,-11.39661 c 2.22524,-1.46744 4.2639,-3.18745 6.085599,-5.11188 l 10.5602,4.94939 c 0.43918,0.20443 0.95592,0.042 1.19699,-0.37838 l 5.92944,-10.25937 c 0.23478,-0.40878 0.12577,-0.93181 -0.25261,-1.20852 l -9.41142,-6.97549 c 0.74525,-2.50195 1.22111,-5.12971 1.37729,-7.83603 l 11.26979,-2.99459 c 0.46224,-0.12046 0.75782,-0.58383 0.67292,-1.05865 z m -46.460661,23.55528 c -11.907079,0 -21.55328,-9.65146 -21.55328,-21.55328 0,-11.90079 9.646201,-21.55328 21.55328,-21.55328 11.900792,0 21.553272,9.65143 21.553272,21.55328 -0.001,11.90078 -9.65248,21.55328 -21.553272,21.55328 z"
         id="path6051" />
      <g
         style="display:inline;fill:#ffffff;fill-opacity:1;stroke:#000000;stroke-width:0.71429449;stroke-miterlimit:4;stroke-dasharray:none;stroke-opacity:1"
         transform="matrix(1.3175271,0,0,1.3175271,0.28390803,285.8763)"
         data-name="Group"
         id="g4501">
        <g
           style="fill:#ffffff;fill-opacity:1;stroke:#000000;stroke-width:0.71429449;stroke-miterlimit:4;stroke-dasharray:none;stroke-opacity:1"
           data-name="Group"
           id="g4499">
          <path
             style="fill:#ffffff;fill-opacity:1;stroke:#000000;stroke-width:0.71429449;stroke-miterlimit:4;stroke-dasharray:none;stroke-opacity:1"
             inkscape:connector-curvature="0"
             d="m 19.8,76.5 57.9,-0.2 h 2.7 A 15.9,15.9 0 0 0 95.7,60.6 15.7,15.7 0 0 0 80,44.9 22.3,22.3 0 0 0 57.5,24.2 22.7,22.7 0 0 0 39.4,33.2 15.2,15.2 0 0 0 32.2,31.4 15.5,15.5 0 0 0 16.9,45.1 15.7,15.7 0 0 0 4.3,60.5 c 0,8.7 7.1,16 15.5,16 z M 19.4,49.9 h 2.5 v -3 a 10.4,10.4 0 0 1 10.3,-10.5 10.3,10.3 0 0 1 6.4,2.2 l 2.3,1.7 1.4,-2.5 A 17.6,17.6 0 0 1 57.5,29.1 17.3,17.3 0 0 1 75,46.2 c 0,0.4 0,0.8 -0.1,1.3 l -0.3,3.4 3.3,-0.7 2.3,-0.3 a 10.7,10.7 0 0 1 0,21.4 h -0.3 l -60.1,0.2 c -5.7,0 -10.4,-5 -10.4,-11 a 10.6,10.6 0 0 1 10,-10.6 z"
             id="path4497" />
        </g>
      </g>
      <path
         mask="none"
         style="fill:#ffffff;fill-opacity:1;stroke:#000011;stroke-width:0.93099999;stroke-miterlimit:4;stroke-dasharray:none;stroke-opacity:1"
         inkscape:connector-curvature="0"
         d="m 56.386963,307.85443 15.342129,-26.49187 7.413365,26.49194 -7.413667,26.48553 z m -7.477473,4.30224 15.34396,26.48744 -26.722851,-6.84597 -19.30522,-19.64147 z M 64.250171,277.05712 48.909563,303.5489 H 18.225462 l 19.305293,-19.64285 z m 21.901615,21.78169 -9.359648,-34.82063 -34.934749,9.33191 -5.171363,9.092 -10.493452,-0.0751 -25.57021743,25.48994 25.57013543,25.48384 h 9.16e-4 l 10.489183,-0.0776 5.178764,9.09207 34.930628,9.33007 9.359189,-34.81392 -5.31552,-9.0166 5.31552,-9.01546 z"
         id="path4485" />
    </g>
  </g>
</svg>
